<svg width="89" height="20" viewBox="0 0 89 20" fill="none" xmlns="http://www.w3.org/2000/svg">
<path d="M43.6765 13.7842C43.6847 12.7842 43.8922 11.879 44.2988 11.0685C44.7189 10.2447 45.2842 9.59532 45.9948 9.12029C46.7055 8.63193 47.5208 8.39097 48.4408 8.39741C49.2408 8.40302 49.9591 8.61472 50.5957 9.03252C51.2456 9.45042 51.7481 9.96728 52.103 10.5831L52.1532 4.46332L54.3531 4.47874L54.2538 16.5983C54.2518 16.8517 54.297 17.032 54.3894 17.1393C54.4819 17.2466 54.6347 17.3077 54.8479 17.3225L54.8335 19.0825C54.4196 19.1462 54.0994 19.1773 53.8727 19.1757C53.4594 19.1728 53.1071 19.0504 52.8157 18.8083C52.5377 18.5664 52.3933 18.2787 52.3827 17.9453L52.3691 17.1651C51.9637 17.829 51.4194 18.3452 50.7364 18.7137C50.0535 19.069 49.3453 19.244 48.612 19.2389C47.892 19.2338 47.2265 19.0892 46.6155 18.8049C46.0178 18.5207 45.4944 18.1237 45.0452 17.6138C44.6094 17.1041 44.2675 16.5217 44.0195 15.8666C43.7849 15.2116 43.6705 14.5175 43.6765 13.7842ZM52.0644 15.303L52.0868 12.5631C51.9437 12.1354 51.7068 11.7537 51.3762 11.418C51.059 11.0692 50.6946 10.7933 50.2829 10.5904C49.8846 10.3876 49.4854 10.2848 49.0854 10.282C48.6188 10.2787 48.1913 10.3757 47.803 10.573C47.428 10.7704 47.0992 11.0347 46.8165 11.3661C46.5471 11.6976 46.3373 12.0761 46.1871 12.5017C46.037 12.9273 45.96 13.3735 45.9562 13.8401C45.9522 14.3201 46.0285 14.774 46.185 15.2018C46.3416 15.6162 46.5652 15.9911 46.8558 16.3265C47.1599 16.6486 47.5044 16.9044 47.8896 17.0938C48.2881 17.2699 48.7208 17.3596 49.1874 17.3629C49.4807 17.3649 49.7745 17.3136 50.0687 17.209C50.3762 17.1045 50.6641 16.9599 50.9323 16.7751C51.2138 16.5904 51.4489 16.372 51.6377 16.12C51.8397 15.8681 51.982 15.5957 52.0644 15.303ZM61.7661 19.331C60.9528 19.3253 60.2139 19.1801 59.5496 18.8955C58.8987 18.5976 58.3352 18.2003 57.8593 17.7036C57.3834 17.1936 57.0148 16.6177 56.7534 15.9758C56.5054 15.3207 56.3844 14.6265 56.3904 13.8932C56.3985 12.9066 56.6326 12.0082 57.0925 11.1981C57.5526 10.3746 58.1914 9.71909 59.0087 9.23147C59.8262 8.73052 60.7816 8.48387 61.8749 8.49153C62.9682 8.49919 63.9061 8.7591 64.6886 9.27126C65.4845 9.77018 66.0991 10.4278 66.5325 11.2442C66.9658 12.0606 67.1786 12.9355 67.171 13.8688C67.1697 14.0288 67.1618 14.182 67.1472 14.3286C67.1328 14.4618 67.1185 14.5751 67.1044 14.6683L58.7247 14.6096C58.7596 15.2232 58.9219 15.7643 59.2114 16.2331C59.5143 16.6885 59.898 17.0512 60.3625 17.3211C60.8271 17.5777 61.326 17.7079 61.8593 17.7116C62.446 17.7158 63.0005 17.573 63.5229 17.2833C64.0586 16.9937 64.4218 16.6096 64.6124 16.1309L66.4879 16.684C66.2571 17.1891 65.9067 17.6467 65.4366 18.0567C64.98 18.4535 64.4374 18.7697 63.8088 19.0053C63.1803 19.2276 62.4994 19.3362 61.7661 19.331ZM58.6766 13.1492L64.9965 13.1935C64.9614 12.5933 64.7924 12.0654 64.4894 11.6099C64.1999 11.1412 63.8229 10.7786 63.3583 10.522C62.9071 10.2521 62.4016 10.1153 61.8416 10.1113C61.2949 10.1075 60.7872 10.2373 60.3184 10.5007C59.863 10.7508 59.4867 11.1082 59.1895 11.5728C58.8925 12.0241 58.7215 12.5495 58.6766 13.1492ZM71.549 19.1996L67.6548 8.71203L69.9348 8.728L72.8457 17.1686L75.8946 8.76976L78.0146 8.78461L73.949 19.2164L71.549 19.1996Z" fill="white"/>
<path d="M40 18C40 19.1046 39.1046 20 38 20C36.8955 20 36 19.1046 36 18C36 16.8954 36.8955 16 38 16C39.1046 16 40 16.8954 40 18Z" fill="#2DD4BF"/>
<path d="M12.9072 15.43C12.9007 16.23 12.6885 16.9018 12.2707 17.4456C11.853 17.976 11.2897 18.3787 10.5807 18.6538C9.88514 18.9289 9.12401 19.0636 8.29736 19.0578L1.43753 19.0097L1.55384 4.81021L9.15365 4.86345C9.8203 4.86812 10.3921 5.05213 10.8692 5.41548C11.3597 5.76559 11.7293 6.22153 11.978 6.78328C12.2402 7.3318 12.3688 7.90605 12.3639 8.50603C12.3584 9.18601 12.1797 9.83144 11.828 10.4423C11.4764 11.0532 10.966 11.503 10.2969 11.7916C11.1083 12.0373 11.7447 12.4751 12.2062 13.105C12.6811 13.735 12.9148 14.51 12.9072 15.43ZM10.1316 14.8905C10.1345 14.5306 10.0638 14.2101 9.91943 13.929C9.77516 13.6347 9.57703 13.4066 9.32501 13.2449C9.08643 13.0698 8.80715 12.9812 8.48716 12.979L4.24726 12.9493L4.21663 16.6891L8.31653 16.7179C8.64986 16.7202 8.9505 16.6423 9.21847 16.4842C9.49989 16.3128 9.72174 16.0877 9.88403 15.8088C10.0463 15.53 10.1288 15.2239 10.1316 14.8905ZM4.29444 7.18946L4.26512 10.7693L7.94503 10.7951C8.25169 10.7973 8.53228 10.7259 8.78681 10.581C9.04134 10.4361 9.24303 10.2309 9.39187 9.96524C9.55405 9.69971 9.63667 9.38028 9.63973 9.00696C9.64268 8.64697 9.57191 8.33313 9.42744 8.06545C9.29629 7.79785 9.11132 7.58989 8.87253 7.44154C8.64707 7.29329 8.38767 7.21814 8.09435 7.21609L4.29444 7.18946ZM19.5967 4.97662L22.1566 4.99455L23.7381 9.70574L25.4165 5.01739L27.9565 5.03518L25.4636 11.4779L27.2265 16.0103L31.3367 5.01886L34.3366 5.03988L28.5405 19.1996L26.1605 19.1829L23.7094 13.2056L21.1806 19.1481L18.8007 19.1314L13.2571 4.8922L16.2171 4.91294L20.1667 15.9609L21.9637 11.4534L19.5967 4.97662Z" fill="white"/>
</svg>
